# xmcd
#
# Track frame offsets:
#	150
#	18106
#	33018
#	51140
#	76292
#	92569
#	107678
#	126155
#	139338
#	158268
#	174323
#	191762
#
# Disc length: 2766 seconds
#
# Revision: 1
# Processed by: cddbd v1.5.2PL0 Copyright (c) Steve Scherf et al.
# Submitted via: audiograbber 1.83.01
#
DISCID=870acc0c
DTITLE=Kenny Chesney - Sing it now
DYEAR=1900
DGENRE=
TTITLE0=You save me
TTITLE1=Summertime
TTITLE2=I go back
TTITLE3=Anything but mine
TTITLE4=When the sun goes down
TTITLE5=Living in fast forward
TTITLE6=Who you'd be today
TTITLE7=No shoes,No shirt,No problem
TTITLE8=There goes my life
TTITLE9=Good stuff
TTITLE10=Big star
TTITLE11=Keg in the closet
EXTD=
EXTT0=
EXTT1=
EXTT2=
EXTT3=
EXTT4=
EXTT5=
EXTT6=
EXTT7=
EXTT8=
EXTT9=
EXTT10=
EXTT11=
PLAYORDER=
